# xmcd CD database file
#
# Track frame offsets:
#	150
#	31690
#	57379
#	95568
#	122328
#	157587
#	186241
#	219818
#	248154
#
# Disc length: 3596 seconds
#
# Revision: 0
# Processed by: cddbd v1.5.2PL0 Copyright (c) Steve Scherf et al.
# Submitted via: CDex 1.51
#
DISCID=660e0a09
DTITLE=St Germain - Tourist
DYEAR=2000
DGENRE=Jazz
TTITLE0=rose rouge
TTITLE1=montego bay spleen
TTITLE2=so flute
TTITLE3=land of ...
TTITLE4=latin note
TTITLE5=sure thing
TTITLE6=pont des arts
TTITLE7=la goutte d or
TTITLE8=what you think about
EXTD=YEAR: 2000
EXTT0=
EXTT1=
EXTT2=
EXTT3=
EXTT4=
EXTT5=
EXTT6=
EXTT7=
EXTT8=
PLAYORDER=
